# AST/ASF file generated using VICON BodyLanguage
# -----------------------------------------------
:version 1.10
:name VICON
:units
  mass 1.0
  length 0.45
  angle deg
:documentation
   .ast/.asf automatically generated from VICON data using
   VICON BodyBuilder and BodyLanguage model FoxedUp or BRILLIANT.MOD
:root
   order TX TY TZ RX RY RZ
   axis XYZ
   position 0 0 0  
   orientation 0 0 0 
:bonedata
  begin
     id 1 
     name lhipjoint
     direction 0.692814 -0.645514 0.321437 
     length 2.38754 
     axis 0 0 0  XYZ
  end
  begin
     id 2 
     name lfemur
     direction 0.34202 -0.939693 0  
     length 6.41921  
     axis 0 0 20  XYZ
    dof rx ry rz
    limits (-160.0 20.0)
           (-70.0 70.0)
           (-60.0 70.0)
  end
  begin
     id 3 
     name ltibia
     direction 0.34202 -0.939693 0   
     length 6.98247   
     axis 0 0 20   XYZ
    dof rx
    limits (-10.0 170.0)
  end
  begin
     id 4 
     name lfoot
     direction 0.0947186 -0.260237 0.960888   
     length 1.83034   
     axis -90 7.62852e-016 20   XYZ
    dof rx rz
    limits (-45.0 90.0)
           (-70.0 20.0)
  end
  begin
     id 5 
     name ltoes
     direction 1.53538e-011 -4.21952e-011 1   
     length 0.920499   
     axis -90 7.62852e-016 20   XYZ
    dof rx
    limits (-90.0 20.0)
  end
  begin
     id 6 
     name rhipjoint
     direction -0.631686 -0.693949 0.345555   
     length 2.2209  
     axis 0 0 0  XYZ 
  end
  begin
     id 7 
     name rfemur
     direction -0.34202 -0.939693 0   
     length 6.49542   
     axis 0 0 -20   XYZ
    dof rx ry rz
    limits (-160.0 20.0)
           (-70.0 70.0)
           (-70.0 60.0)
  end
  begin
     id 8 
     name rtibia
     direction -0.34202 -0.939693 0   
     length 7.21712   
     axis 0 0 -20   XYZ
    dof rx
    limits (-10.0 170.0)
 end
 begin
     id 9 
     name rfoot
     direction -0.0825378 -0.226771 0.970444   
     length 1.89724  
     axis -90 -7.62852e-016 -20   XYZ
    dof rx rz
    limits (-45.0 90.0)
           (-20.0 70.0)
  end
  begin
     id 10 
     name rtoes
     direction -1.53515e-011 -4.22016e-011 1   
     length 0.955868   
     axis -90 -7.62852e-016 -20   XYZ
    dof rx
    limits (-90.0 20.0)
  end
  begin
     id 11 
     name lowerback
     direction -0.0104711 0.984802 -0.173368   
     length 1.84931   
     axis 0 0 0   XYZ
    dof rx ry rz
    limits (-20.0 45.0)
           (-30.0 30.0)
           (-30.0 30.0)
  end
  begin
     id 12 
     name upperback
     direction -0.00286433 0.999996 -0.000382853   
     length 1.85768   
     axis 0 0 0   XYZ
    dof rx ry rz
    limits (-20.0 45.0)
           (-30.0 30.0)
           (-30.0 30.0)
  end
  begin
     id 13 
     name thorax
     direction 0.00167534 0.996793 0.0800069   
     length 1.92   
     axis 0 0 0   XYZ
    dof rx ry rz
    limits (-20.0 45.0)
           (-30.0 30.0)
           (-30.0 30.0)
  end
  begin
     id 14 
     name lowerneck
     direction -0.0672491 0.995415 0.068018   
     length 1.58923   
     axis 0 0 0   XYZ
    dof rx ry rz
    limits (-20.0 45.0)
           (-30.0 30.0)
           (-30.0 30.0)
  end
  begin
     id 15 
     name upperneck
     direction 0.0958019 0.982476 -0.159884   
     length 1.60189   
     axis 0 0 0   XYZ
    dof rx ry rz
    limits (-20.0 45.0)
           (-30.0 30.0)
           (-30.0 30.0)
  end
  begin
     id 16
     name head
     direction 0.032989 0.997338 -0.0650226  
     length 1.61681  
     axis 0 0 0   XYZ
    dof rx ry rz
    limits (-20.0 45.0)
           (-30.0 30.0)
           (-30.0 30.0)
  end
  begin
     id 17 
     name lclavicle
     direction 0.954279 0.298875 -0.00496069  
     length 2.99449  
     axis 0 0 0   XYZ
    dof ry rz
    limits (-20.0 10.0)
           (0.0 20.0)
  end
  begin
     id 18 
     name lhumerus
     direction 1 -4.48985e-011 -4.2057e-027   
     length 4.79185   
     axis 180 -30 -90   XYZ
    dof rx ry rz
    limits (-60.0 90.0)
           (-90.0 90.0)
           (-90.0 90.0)
  end
  begin
     id 19
     name lradius
     direction 1 -4.48945e-011 1.15441e-028   
     length 2.65553   
     axis 180 -30 -90   XYZ
    dof rx
    limits (-10.0 170.0)
  end
  begin
     id 20
     name lwrist
     direction 1 -4.4899e-011 4.8894e-028   
     length 1.32777   
     axis -2.56392e-016 90 90   XYZ
    dof ry
    limits (-180.0 0.0)
 end
  begin
     id 21 
     name lhand
     direction 1 -4.48908e-011 9.7788e-028   
     length 0.743904   
     axis -6.23971e-016 90 90   XYZ
    dof rx rz
    limits (-90.0 90.0)
           (-45.0 45.0)
  end
  begin
     id 22 
     name lfingers
     direction 1 -4.49068e-011 1.95576e-027   
     length 0.599754   
     axis -1.24794e-015 90 90   XYZ
    dof rx
    limits (0.0 90.0)
  end
  begin
     id 23
     name lthumb
     direction 0.707107 -6.34883e-011 0.707107   
     length 0.861131   
     axis -90 45 2.85299e-015   XYZ
    dof rx rz
    limits (-45.0 45.0)
           (-45.0 45.0)
  end
  begin
     id 24 
     name rclavicle
     direction -0.957921 0.286916 0.00811568   
     length 3.06817  
     axis 0 0 0   XYZ 
    dof ry rz
    limits (-10.0 20.0)
           (-20.0 0.0)
  end
  begin
     id 25 
     name rhumerus
     direction -1 -4.48971e-011 -3.07942e-027  
     length 4.77254   
     axis 180 30 90   XYZ
    dof rx ry rz
    limits (-90.0 60.0)
           (-90.0 90.0)
           (-90.0 90.0)
  end
  begin
     id 26 
     name rradius
     direction -1 -4.48957e-011 -9.6815e-028   
     length 2.75995   
     axis 180 30 90   XYZ
    dof rx
    limits (-10.0 170.0)
  end
  begin
     id 27 
     name rwrist
     direction -1 -4.48979e-011 4.8894e-028   
     length 1.37997   
     axis -2.56392e-016 -90 -90   XYZ
    dof ry
    limits (-180.0 0.0)
  end
  begin
     id 28
     name rhand
     direction -1 -4.48906e-011 9.7788e-028   
     length 0.701619   
     axis -6.23971e-016 -90 -90   XYZ
    dof rx rz
    limits (-90.0 90.0)
           (-45.0 45.0)
  end
  begin
     id 29
     name rfingers
     direction -1 -4.49018e-011 1.95576e-027   
     length 0.565663   
     axis -1.24794e-015 -90 -90   XYZ
    dof rx
    limits (0.0 90.0)
  end
  begin
     id 30
     name rthumb
     direction -0.707107 -6.34881e-011 0.707107   
     length 0.812183   
     axis -90 -45 -2.85299e-015   XYZ
    dof rx rz
    limits (-45.0 45.0)
           (-45.0 45.0)
  end
:hierarchy
  begin
    root lhipjoint rhipjoint lowerback
    lhipjoint lfemur
    lfemur ltibia
    ltibia lfoot
    lfoot ltoes
    rhipjoint rfemur
    rfemur rtibia
    rtibia rfoot
    rfoot rtoes
    lowerback upperback
    upperback thorax
    thorax lowerneck lclavicle rclavicle
    lowerneck upperneck
    upperneck head
    lclavicle lhumerus
    lhumerus lradius
    lradius lwrist
    lwrist lhand lthumb
    lhand lfingers
    rclavicle rhumerus
    rhumerus rradius
    rradius rwrist
    rwrist rhand rthumb
    rhand rfingers
  end

#!OML:ASF F:\VICON\USERDATA\INSTALL\rory3\rory3.ASF
:FULLY-SPECIFIED
:DEGREES
304
root 0.276194 14.803 -1.9894 1.91083 -1.1172 0.922352
lowerback 20.7268 -0.572472 -1.78895
upperback 4.8093 -1.09303 0.416976
thorax -6.31103 -0.505531 1.74865
lowerneck -6.61073 -7.23144 -15.0582
upperneck 11.486 -10.0488 15.068
head 6.08824 -4.68114 6.49646
rclavicle 1.49337e-014 -1.04362e-015
rhumerus 7.41136 28.1129 -79.99
rradius 129.25
rwrist 33.2384
rhand 23.8709 8.91102
rfingers 7.12502
rthumb 48.1225 -13.2444
lclavicle 1.49337e-014 -1.04362e-015
lhumerus -3.74122 -25.8952 83.8233
lradius 128.161
lwrist -8.64278
lhand 5.28931 32.0116
lfingers 7.12502
lthumb 30.6459 59.48
rfemur -33.4149 9.72594 13.8331
rtibia 56.4631
rfoot -19.9317 -12.3048
rtoes -21.8448
lfemur -31.8573 -6.07726 -16.3625
ltibia 53.2102
lfoot -18.1161 3.84228
ltoes -18.1812
305
root 0.269223 14.801 -1.99237 1.87582 -1.30889 1.02173
lowerback 20.7505 -0.429889 -1.816
upperback 4.8217 -0.944126 0.0176242
thorax -6.32317 -0.434544 1.29637
lowerneck -6.56162 -7.34568 -14.4859
upperneck 11.3992 -10.22 14.722
head 6.03072 -4.76188 6.26593
rclavicle 1.57785e-015 1.14301e-015
rhumerus 7.70129 27.2231 -79.8481
rradius 129.57
rwrist 33.2517
rhand 23.1341 9.30561
rfingers 7.12502
rthumb 47.4428 -13.1631
lclavicle 1.57785e-015 1.14301e-015
lhumerus -3.64542 -26.7566 83.7214
lradius 127.732
lwrist -8.50392
lhand 4.83875 31.8441
lfingers 7.12502
lthumb 30.2162 59.392
rfemur -33.4583 9.86962 13.748
rtibia 56.5083
rfoot -19.9811 -12.2455
rtoes -21.7997
lfemur -31.7764 -5.89619 -16.4563
ltibia 53.1639
lfoot -18.0951 3.90641
ltoes -18.2193
306
root 0.261008 14.8005 -1.99485 1.81408 -1.47017 0.992172
lowerback 20.8099 -0.350715 -1.75242
upperback 4.83031 -0.853062 -0.295235
thorax -6.35444 -0.392304 0.900807
lowerneck -6.4745 -7.40847 -14.2479
upperneck 11.3327 -10.308 14.5155
head 5.98444 -4.81043 6.1496
rclavicle 1.02871e-014 7.25564e-015
rhumerus 8.02802 26.4192 -79.5918
rradius 129.764
rwrist 33.1409
rhand 22.565 9.29934
rfingers 7.12502
rthumb 46.9166 -13.4035
lclavicle 1.02871e-014 7.25564e-015
lhumerus -3.48109 -27.3529 83.5955
lradius 127.28
lwrist -8.21979
lhand 4.51972 31.4264
lfingers 7.12502
lthumb 29.9118 59.0296
rfemur -33.4238 10.0371 13.8313
rtibia 56.5228
rfoot -19.9461 -12.304
rtoes -22.2732
lfemur -31.6701 -5.70436 -16.3997
ltibia 53.1308
lfoot -18.0908 3.90831
ltoes -18.3879
307
root 0.254025 14.8012 -1.9961 1.79129 -1.61024 1.02259
lowerback 20.8489 -0.350466 -1.77238
upperback 4.82322 -0.879761 -0.575555
thorax -6.3864 -0.405785 0.617764
lowerneck -6.46141 -7.40583 -14.27
upperneck 11.2111 -10.2688 14.359
head 5.93132 -4.80309 6.10458
rclavicle -8.44835e-015 -5.36719e-015
rhumerus 8.35177 25.88 -79.3318
rradius 129.889
rwrist 33.0287
rhand 21.6854 8.18153
rfingers 7.12502
rthumb 46.1018 -14.8705
lclavicle -8.44835e-015 -5.36719e-015
lhumerus -3.3473 -27.5861 83.5093
lradius 126.895
lwrist -8.01034
lhand 4.96769 30.9985
lfingers 7.12502
lthumb 30.3392 58.5238
rfemur -33.4338 10.1378 13.8306
rtibia 56.5295
rfoot -19.8827 -12.2782
rtoes -22.4289
lfemur -31.5925 -5.51772 -16.416
ltibia 53.0937
lfoot -18.1115 3.86733
ltoes -18.3875
308
root 0.245008 14.8021 -1.9968 1.82186 -1.80144 1.12391
lowerback 20.8206 -0.308454 -1.92566
upperback 4.80396 -0.877337 -0.832369
thorax -6.39436 -0.403541 0.427833
lowerneck -6.51472 -7.39103 -14.3367
upperneck 11.1772 -10.1947 14.1091
head 5.90898 -4.78224 6.03816
rclavicle 1.47101e-014 1.19271e-015
rhumerus 8.55468 25.3789 -79.1149
rradius 130.005
rwrist 32.9389
rhand 21.5456 7.45156
rfingers 7.12502
rthumb 45.9721 -15.6546
lclavicle 1.47101e-014 1.19271e-015
lhumerus -3.10077 -27.8099 83.5221
lradius 126.837
lwrist -7.96488
lhand 5.76901 30.8658
lfingers 7.12502
lthumb 31.1032 58.2475
rfemur -33.5182 10.3214 13.7366
rtibia 56.5239
rfoot -19.8442 -12.2166
rtoes -22.2177
lfemur -31.5835 -5.31996 -16.4948
ltibia 53.0736
lfoot -18.1698 3.90732
ltoes -18.4233
